# xmcd
#
# Track frame offsets:
#	150
#	16055
#	33310
#	51989
#	70745
#	84025
#	102556
#	117186
#	132192
#	153873
#	173528
#	190483
#	205863
#	220943
#
# Disc length: 3210 seconds
#
# Revision: 1
# Processed by: cddbd v1.5.2PL0 Copyright (c) Steve Scherf et al.
# Submitted via: audiograbber 1.83.01
#
DISCID=b30c880e
DTITLE=The Bellamy Brothers - Pray For Me
DYEAR=2012
DGENRE=Country
TTITLE0=Jesus Ain't No Stained Glass Wind
TTITLE1=Pray For Me
TTITLE2=Holy Roller
TTITLE3=Spirit In The Sky
TTITLE4=Suppertime
TTITLE5=God Aint Finished With Me Yet
TTITLE6=Hypocrites In Heaven
TTITLE7=Hymn To Him
TTITLE8=The Spanish Bible
TTITLE9=Number Of Breaths
TTITLE10=New Man In The Suit
TTITLE11=Rodeo For Jesus
TTITLE12=Guardian Angel
TTITLE13=Hand Me My Bible
EXTD=
EXTT0=
EXTT1=
EXTT2=
EXTT3=
EXTT4=
EXTT5=
EXTT6=
EXTT7=
EXTT8=
EXTT9=
EXTT10=
EXTT11=
EXTT12=
EXTT13=
PLAYORDER=
